# xmcd
#
# Track frame offsets: 
#        150
#        22203
#        38408
#        52618
#        79374
#        102024
#        122692
#        144299
#        165149
#        182600
#        202432
#        226417
#
# Disc length: 3320 seconds
#
# Revision: 0
# Processed by: cddbd v1.5.2PL0 Copyright (c) Steve Scherf et al.
# Submitted via: ExactAudioCopy v0.95b4
#
DISCID=910cf60c
DTITLE=Various Artist - Luxury Soul 2006 [CD2]
DYEAR=2006
DGENRE=Soul
TTITLE0=Andre Le Lange - Could You Be My Favourite Girl
TTITLE1=Brigette - One Wish
TTITLE2=Genai - Runaway
TTITLE3=Carnelle Hinds - Sausalito Calling
TTITLE4=Reggie Calloway - Sabrina
TTITLE5=Ian Martin - Release
TTITLE6=Don Blackman - Watch Your Heart
TTITLE7=Brenda Hillman - Forever Will Be Mine
TTITLE8=General Johnson - Don't Walk Away
TTITLE9=Denise Stewart - Begin Again
TTITLE10=Peggi Blu - Uh Oh
TTITLE11=Bob Baldwin - For You
EXTD=
EXTT0=
EXTT1=
EXTT2=
EXTT3=
EXTT4=
EXTT5=
EXTT6=
EXTT7=
EXTT8=
EXTT9=
EXTT10=
EXTT11=
PLAYORDER=
